# xmcd
#
# Track frame offsets:
#	150
#	19900
#	31455
#	46782
#	62432
#	74285
#	92467
#	107521
#	116086
#	130931
#	144526
#	160543
#	176568
#	192183
#	206321
#	219304
#	228116
#	239378
#
# Disc length: 3418 seconds
#
# Revision: 0
# Processed by: cddbd v1.5.2PL0 Copyright (c) Steve Scherf et al.
# Submitted via: audiograbber 1.83.01
#
DISCID=e80d5812
DTITLE=The Moses Hogan Singers - Les Plus Beaux Négro Spirituals Vol.2
DYEAR=2004
DGENRE=Gospel
TTITLE0=Who Build The Ark?
TTITLE1=Oh, Mary, Don't You Weep
TTITLE2=Ezekiel Saw De Wheel
TTITLE3=No Hidin' Place
TTITLE4=Go, Tell It On The Mountain
TTITLE5=Surely, He Died On Calvary
TTITLE6=Were You There?
TTITLE7=The Angel Rolled The Stone Away
TTITLE8=Somebody's Knocking At Yo' Door
TTITLE9=Hear My Prayer
TTITLE10=Let Us Break Bread
TTITLE11=Do, Lord, Remembber Me
TTITLE12=Deep River
TTITLE13=Walk Together
TTITLE14=Sometimes I Feel
TTITLE15=I Want To Be Ready
TTITLE16=Good News, The Chariot's Coming
TTITLE17=My Lord, What A Morning
EXTD=
EXTT0=
EXTT1=
EXTT2=
EXTT3=
EXTT4=
EXTT5=
EXTT6=
EXTT7=
EXTT8=
EXTT9=
EXTT10=
EXTT11=
EXTT12=
EXTT13=
EXTT14=
EXTT15=
EXTT16=
EXTT17=
PLAYORDER=
